<svg xmlns="http://www.w3.org/2000/svg" viewBox="0 0 524.41 113.38"><defs><style>.cls-1{fill:#dd052b;}</style></defs><g id="Layer_2" data-name="Layer 2"><g id="Layer_1-2" data-name="Layer 1"><g id="Vestel_Logo" data-name="Vestel Logo"><polygon class="cls-1" points="446.37 0.8 483.65 0.8 483.65 97.06 524.41 97.06 524.41 112.6 446.37 112.6 446.37 0.8"/><polygon class="cls-1" points="363.88 0.8 438.02 0.8 438.02 13.99 399.59 13.99 399.59 51.26 434.54 51.26 434.54 64.46 399.59 64.46 399.59 97.06 440.37 97.06 440.37 112.6 363.88 112.6 363.88 0.8"/><polygon class="cls-1" points="267.79 0.8 357.45 0.8 357.45 15.18 331.05 15.18 331.05 112.6 295.35 112.6 295.35 15.18 267.79 15.18 267.79 0.8"/><path class="cls-1" d="M263.31,0H233s-36,1.29-38.77,34.74,34.56,32.76,41.53,47.05c4.44,9.14-6.45,16.12-15.68,16.12h-25v15.47h42.38s44.39-2.4,38.15-40.49c-4-24.58-31.15-20.76-40.25-37.28s6.77-21.19,8.46-21.19h19.28Z"/><polygon class="cls-1" points="110.18 0.8 185.5 0.8 185.5 13.99 145.9 13.99 145.9 51.26 180.85 51.26 180.85 64.46 145.9 64.46 145.9 97.06 187.83 97.06 187.83 112.6 110.18 112.6 110.18 0.8"/><polygon class="cls-1" points="87.21 0.78 63.18 78.79 38.38 0.78 0 0.78 39.36 112.56 68.04 112.56 106.41 0.78 87.21 0.78"/></g></g></g></svg>